<?xml version="1.0" standalone="no"?>
<!DOCTYPE svg PUBLIC "-//W3C//DTD SVG 20010904//EN"
 "http://www.w3.org/TR/2001/REC-SVG-20010904/DTD/svg10.dtd">
<svg version="1.0" xmlns="http://www.w3.org/2000/svg"
 width="925.000000pt" height="903.000000pt" viewBox="0 0 925.000000 903.000000"
 preserveAspectRatio="xMidYMid meet">

<g transform="translate(0.000000,903.000000) scale(0.100000,-0.100000)"
fill="#000000" stroke="none">
<path d="M4544 8973 c-55 -83 -176 -202 -269 -262 -159 -104 -323 -171 -695
-282 -501 -150 -666 -222 -844 -367 -191 -156 -314 -409 -334 -687 -8 -117 6
-109 -152 -74 -147 32 -378 33 -495 1 -283 -78 -470 -244 -769 -682 -203 -298
-287 -409 -395 -522 -160 -167 -300 -263 -474 -323 -51 -17 -94 -33 -97 -36
-2 -2 16 -33 42 -69 60 -84 110 -185 141 -285 56 -179 67 -300 67 -725 0 -543
23 -771 99 -966 100 -257 305 -455 585 -564 47 -19 86 -38 86 -42 0 -5 -18
-32 -39 -61 -137 -182 -206 -418 -181 -620 32 -261 131 -453 483 -938 197
-272 294 -424 362 -564 89 -185 125 -323 125 -489 0 -80 2 -87 17 -81 50 21
183 55 254 66 114 16 330 7 459 -21 120 -25 333 -94 635 -205 449 -164 698
-196 959 -120 172 50 353 164 505 319 l75 75 100 -103 c236 -241 448 -338 741
-337 219 1 373 40 835 214 452 170 604 209 820 209 133 0 243 -20 344 -63 39
-16 71 -27 73 -26 1 2 -2 41 -7 87 -22 195 33 419 157 634 64 112 104 170 282
411 195 265 280 394 341 520 164 340 157 646 -23 989 -34 65 -48 100 -40 103
7 2 49 27 95 54 261 157 435 355 514 586 59 175 67 256 58 593 -5 162 -9 401
-8 530 0 203 4 249 23 338 39 185 101 327 203 465 28 37 49 69 47 70 -2 2 -35
16 -72 32 -145 60 -313 182 -468 342 -107 109 -195 216 -373 453 -274 364
-428 529 -589 634 -247 162 -529 189 -843 82 l-71 -24 -12 121 c-33 321 -147
551 -351 710 -144 111 -305 179 -750 318 -282 89 -433 146 -582 220 -201 100
-299 170 -454 322 l-102 99 -38 -59z m113 -93 c181 -169 374 -290 632 -394
102 -42 176 -67 621 -210 223 -72 407 -155 505 -228 231 -172 337 -398 361
-766 6 -98 9 -113 23 -108 9 3 62 21 118 40 372 129 672 68 955 -193 104 -97
205 -216 398 -471 286 -378 419 -527 583 -658 79 -63 218 -150 283 -177 l35
-14 -40 -58 c-98 -145 -169 -333 -197 -524 -17 -118 -17 -216 2 -844 4 -138 3
-240 -5 -297 -50 -372 -223 -609 -603 -825 l-98 -55 26 -42 c58 -94 136 -269
160 -362 47 -180 35 -381 -32 -561 -62 -164 -149 -305 -399 -643 -180 -243
-246 -343 -314 -480 -86 -170 -124 -315 -125 -478 -1 -117 10 -108 -101 -78
-172 47 -363 43 -590 -13 -143 -36 -249 -71 -530 -179 -401 -153 -538 -190
-743 -199 -294 -13 -487 65 -713 287 -64 63 -128 130 -141 149 l-25 33 -114
-114 c-241 -241 -470 -348 -747 -348 -204 0 -343 35 -797 199 -453 164 -546
186 -815 186 -170 0 -206 -3 -284 -23 -49 -12 -91 -20 -94 -18 -2 3 -8 44 -13
91 -18 181 -77 347 -197 554 -63 111 -134 215 -312 461 -366 506 -460 703
-460 971 0 201 72 385 223 571 l46 57 -67 22 c-37 12 -108 41 -158 64 -277
129 -447 324 -529 609 -47 166 -56 282 -60 771 -3 487 -11 591 -60 774 -28
103 -85 234 -134 305 -17 24 -31 46 -31 49 0 2 19 10 43 16 66 20 225 106 302
163 160 120 299 282 535 628 258 377 374 511 531 613 236 154 475 182 814 97
64 -17 119 -30 121 -30 2 0 4 40 4 89 0 207 69 437 175 581 51 69 163 172 244
225 147 95 295 154 681 270 423 128 593 196 753 302 82 54 211 174 252 233 15
22 30 40 33 40 2 0 33 -27 69 -60z"/>
<path d="M4546 8734 c-86 -129 -258 -263 -441 -344 -121 -53 -208 -82 -495
-170 -294 -89 -411 -131 -525 -186 -270 -129 -438 -312 -514 -559 -24 -77 -51
-236 -51 -302 0 -24 -4 -43 -10 -43 -5 0 -47 9 -92 19 -384 90 -682 10 -939
-250 -89 -90 -168 -193 -329 -429 -177 -260 -268 -378 -371 -481 -133 -134
-281 -230 -430 -279 -35 -11 -70 -23 -77 -25 -9 -4 -3 -18 21 -47 87 -107 154
-271 188 -465 19 -104 22 -176 29 -613 8 -545 13 -592 74 -772 47 -138 107
-237 201 -333 111 -113 224 -185 397 -254 32 -13 58 -25 58 -26 0 -2 -24 -39
-54 -82 -125 -182 -174 -343 -163 -532 14 -244 120 -458 449 -909 243 -333
365 -538 422 -713 31 -94 56 -232 56 -314 l0 -62 55 19 c115 39 197 51 345 52
190 0 317 -25 577 -114 109 -37 296 -102 416 -143 267 -92 366 -112 547 -111
107 0 153 5 220 23 175 46 353 154 508 309 l78 78 88 -93 c108 -114 194 -180
311 -238 140 -70 222 -88 395 -88 219 0 333 29 795 203 437 165 556 195 780
194 133 -1 160 -4 238 -28 49 -14 101 -33 115 -40 l27 -14 0 152 c0 183 18
263 99 431 66 138 132 241 309 479 196 264 261 363 327 500 155 316 153 583
-5 904 -35 70 -62 127 -62 128 1 0 45 25 97 56 238 141 397 314 480 523 66
166 84 348 67 655 -6 113 -11 306 -11 430 0 195 3 239 23 330 35 166 108 330
198 449 18 24 33 47 33 50 0 4 -36 23 -79 44 -251 117 -446 305 -787 757 -307
408 -447 548 -649 645 -132 64 -197 79 -350 79 -135 0 -227 -17 -361 -64 -32
-11 -60 -20 -61 -20 -2 0 -3 24 -3 53 0 131 -51 349 -107 462 -60 120 -160
232 -278 312 -133 90 -252 138 -650 263 -307 96 -452 152 -594 226 -152 80
-272 166 -387 277 -56 53 -104 97 -106 97 -3 0 -22 -25 -42 -56z m214 -156
c137 -113 359 -237 560 -311 52 -19 219 -74 370 -122 297 -94 381 -125 493
-181 278 -141 420 -338 472 -658 8 -50 15 -128 15 -173 0 -46 4 -83 9 -83 5 0
56 16 113 35 315 105 557 80 798 -85 137 -94 265 -235 522 -576 331 -439 511
-615 756 -738 39 -20 72 -38 72 -40 0 -2 -16 -28 -36 -57 -87 -129 -150 -291
-179 -457 -26 -145 -28 -309 -11 -633 23 -417 8 -576 -72 -768 -82 -196 -264
-376 -514 -511 l-76 -41 45 -75 c54 -89 106 -213 134 -321 29 -110 30 -286 1
-403 -50 -207 -122 -332 -428 -747 -310 -420 -404 -630 -404 -905 0 -78 -2
-89 -16 -84 -92 35 -187 50 -324 50 -226 0 -342 -30 -805 -204 -390 -147 -529
-185 -715 -196 -292 -17 -548 102 -767 358 l-75 87 -76 -80 c-223 -238 -474
-359 -742 -359 -171 0 -334 41 -713 179 -442 160 -586 195 -817 194 -134 0
-268 -19 -341 -48 -14 -5 -17 5 -23 67 -29 294 -127 494 -484 985 -189 260
-267 382 -333 517 -83 171 -104 251 -104 411 0 213 42 318 233 575 11 15 5 20
-65 45 -324 114 -523 304 -617 587 -52 156 -58 218 -66 738 -6 374 -11 510
-24 593 -29 185 -85 348 -156 453 -17 25 -32 50 -33 55 -1 5 35 24 80 42 123
51 244 131 357 239 121 115 217 235 396 498 170 248 274 382 367 471 203 193
428 269 702 239 89 -10 252 -45 302 -65 14 -5 17 10 22 117 17 329 143 561
394 725 151 98 277 149 675 269 380 114 549 183 701 286 75 51 176 146 224
211 l36 49 56 -55 c31 -29 81 -74 111 -99z"/>
<path d="M4360 7354 c-218 -27 -295 -39 -415 -65 -162 -35 -443 -127 -595
-194 -758 -333 -1365 -956 -1672 -1715 -158 -390 -230 -765 -230 -1195 0 -239
14 -394 57 -615 124 -633 472 -1262 940 -1694 456 -421 984 -690 1590 -810
337 -67 764 -73 1119 -15 1166 189 2144 1022 2513 2139 111 336 157 625 157
995 0 242 -10 365 -50 580 -213 1168 -1085 2131 -2236 2469 -306 90 -498 117
-858 121 -157 2 -301 1 -320 -1z m480 -324 c226 -24 458 -77 675 -155 158 -56
452 -200 593 -289 421 -266 780 -635 1041 -1070 39 -65 71 -122 71 -126 0 -5
-386 -233 -451 -267 -4 -1 -35 48 -69 110 -544 983 -1513 1473 -2515 1272
-329 -66 -680 -232 -960 -455 -254 -202 -504 -502 -680 -818 -31 -56 -60 -100
-63 -98 -4 2 -107 61 -229 130 -123 70 -225 130 -227 134 -11 19 208 349 353
532 101 127 382 408 508 508 323 254 675 431 1051 526 94 24 301 61 387 69 88
8 426 6 515 -3z m203 -1067 c40 -58 55 -102 68 -199 6 -49 15 -100 20 -112 8
-20 4 -28 -23 -50 -108 -89 -167 -179 -188 -291 -5 -30 -10 -96 -10 -147 0
-84 -17 -182 -58 -339 -8 -30 -8 -29 -33 30 -22 55 -24 72 -22 210 1 114 7
169 23 230 21 81 102 260 158 350 l31 50 -55 56 -56 56 27 54 c42 83 76 139
85 139 4 0 19 -17 33 -37z m-226 -135 l141 -143 -49 -85 c-58 -100 -120 -255
-144 -360 -20 -88 -23 -254 -6 -320 7 -25 32 -94 56 -155 62 -154 85 -258 85
-382 0 -132 -8 -169 -88 -403 -62 -183 -66 -202 -70 -300 -2 -58 0 -116 5
-128 l9 -24 51 41 c154 121 247 296 274 513 18 153 5 278 -73 668 -49 241 -52
264 -52 415 -1 145 1 165 22 218 30 74 113 164 189 205 65 34 199 76 282 87
l55 7 -41 -46 c-57 -64 -109 -168 -134 -267 -20 -77 -22 -122 -29 -519 -8
-462 -16 -544 -66 -738 -44 -168 -138 -377 -236 -520 -17 -24 -28 -45 -26 -48
8 -8 151 23 211 46 78 29 167 112 207 193 48 99 64 204 56 392 -3 88 -15 229
-25 314 -49 379 -49 545 -1 686 53 156 185 245 385 262 l70 6 -70 -75 c-78
-84 -124 -156 -158 -244 -19 -52 -22 -78 -22 -209 1 -128 5 -166 28 -262 86
-357 81 -327 82 -503 0 -147 -3 -172 -23 -232 -92 -266 -381 -425 -895 -493
-139 -18 -204 -19 -335 -4 -518 56 -850 270 -918 591 -25 116 -9 252 65 544
103 409 77 632 -97 825 l-56 61 55 -7 c237 -32 341 -146 370 -405 12 -104 9
-180 -22 -525 -42 -458 -11 -660 121 -799 57 -61 139 -108 225 -131 116 -30
125 -14 50 91 -107 148 -192 355 -231 564 -15 82 -18 159 -20 545 -1 362 -5
468 -18 542 -23 136 -69 240 -138 319 -17 19 -29 36 -27 38 2 2 35 0 73 -5
284 -35 426 -150 451 -365 10 -87 -8 -221 -70 -528 -30 -149 -59 -320 -66
-381 -30 -287 32 -533 181 -719 68 -84 135 -142 145 -126 4 6 9 43 12 83 7
100 -14 189 -88 364 -79 191 -89 227 -89 350 0 117 18 221 55 325 92 252 96
266 102 371 10 185 -26 346 -123 541 -30 60 -51 113 -47 116 5 4 70 66 146
139 76 72 142 131 145 131 4 0 71 -64 149 -142z m-449 51 l54 -82 -51 -51 -51
-52 43 -76 c60 -105 106 -225 129 -338 28 -132 21 -302 -16 -415 -14 -44 -30
-86 -34 -93 -6 -8 -19 25 -37 93 -27 103 -27 108 -15 198 19 137 16 269 -9
347 -33 102 -80 156 -197 226 -17 10 -16 14 5 98 12 49 30 105 41 126 20 40
68 100 78 100 4 0 31 -37 60 -81z m2249 -581 c88 -153 96 -168 85 -168 -15 0
-93 59 -159 121 -34 31 -78 62 -98 69 -31 10 -34 14 -23 28 16 20 98 72 113
72 6 0 43 -55 82 -122z m-3869 93 c20 -10 47 -30 60 -44 l24 -25 -37 -12 c-20
-7 -70 -41 -112 -77 -72 -61 -130 -99 -139 -91 -3 4 45 90 135 240 19 33 21
33 69 9z m3718 -127 c21 -15 64 -50 94 -78 58 -55 128 -100 170 -111 20 -5 57
12 174 80 81 47 153 88 160 91 8 3 32 -33 64 -94 29 -55 52 -102 52 -105 0 -3
-76 -36 -170 -72 l-170 -67 35 -42 c42 -52 65 -104 65 -149 0 -43 -41 -124
-84 -166 l-34 -33 -33 18 c-57 29 -136 119 -173 197 -20 40 -63 156 -96 256
-33 101 -73 210 -88 242 -32 66 -25 73 34 33z m-3658 -51 c-17 -38 -59 -152
-94 -255 -35 -103 -74 -209 -88 -235 -37 -75 -98 -146 -155 -183 l-52 -33 -40
39 c-105 101 -109 208 -14 313 l35 38 -168 63 c-92 35 -171 66 -175 70 -10 9
103 230 118 230 6 0 79 -41 164 -90 l153 -91 49 16 c46 16 158 90 174 115 10
16 96 70 111 70 8 0 2 -24 -18 -67z m4521 -212 c48 -60 71 -119 70 -181 -1
-80 -19 -121 -65 -147 -80 -46 -297 -120 -402 -138 l-43 -7 34 45 c67 88 71
192 11 281 -14 21 -24 39 -22 40 8 7 364 144 375 145 6 1 25 -17 42 -38z
m-5200 -42 c102 -39 189 -73 193 -75 4 -3 -7 -24 -24 -49 -55 -77 -52 -178 8
-265 l36 -52 -44 7 c-101 17 -388 116 -433 149 -8 6 -22 41 -31 77 -15 61 -15
71 0 122 14 48 85 157 103 157 3 0 89 -32 192 -71z m5193 -1153 c138 -41 209
-196 145 -316 -12 -24 -32 -49 -45 -58 -20 -13 -22 -12 -32 13 -5 14 -10 52
-10 83 0 119 -29 162 -109 162 -38 0 -49 -5 -86 -42 -65 -67 -97 -169 -130
-428 -44 -341 -94 -444 -301 -619 -92 -77 -371 -271 -390 -271 -5 0 -21 15
-35 33 -31 38 -115 85 -212 117 -61 21 -73 22 -122 11 -56 -13 -122 -52 -239
-140 -49 -38 -76 -51 -95 -49 -59 7 -48 109 20 183 56 60 152 104 374 171 255
76 323 109 475 230 212 170 290 277 345 474 32 116 57 179 101 248 66 103 140
169 223 198 47 17 68 17 123 0z m-5295 -30 c68 -32 157 -124 210 -217 25 -43
55 -120 73 -184 70 -242 136 -332 388 -527 131 -101 196 -131 452 -207 286
-86 375 -134 420 -222 26 -51 27 -115 1 -129 -28 -14 -52 -3 -161 79 -130 98
-176 114 -304 107 -142 -7 -195 -28 -266 -107 l-35 -38 -93 60 c-205 131 -353
253 -428 352 -85 112 -110 190 -148 469 -37 260 -75 382 -134 429 -41 32 -96
44 -132 29 -43 -18 -52 -41 -61 -149 -5 -52 -13 -99 -19 -105 -15 -15 -41 3
-67 50 -53 93 -35 193 47 267 79 71 165 85 257 43z m1105 -7 c34 -7 89 -34
153 -74 738 -459 1412 -575 2075 -355 234 77 426 175 670 341 94 65 126 81
175 90 89 17 226 6 319 -25 182 -61 256 -168 197 -285 -47 -91 -219 -214 -417
-298 l-101 -43 -75 35 c-302 139 -545 132 -709 -22 -51 -48 -115 -131 -107
-139 3 -2 67 3 144 12 148 17 309 15 379 -6 45 -14 105 -69 105 -97 0 -23
-116 -138 -194 -192 -104 -72 -193 -87 -308 -51 -84 26 -132 61 -248 180 -107
110 -137 125 -193 93 -23 -13 -44 -43 -76 -104 l-43 -86 -59 29 c-115 57 -221
61 -323 9 l-55 -27 -27 64 c-37 88 -80 132 -128 132 -20 0 -49 -6 -65 -14 -34
-18 -92 -81 -135 -149 -39 -60 -77 -97 -126 -123 -28 -15 -57 -19 -141 -19
l-106 0 -106 52 c-168 84 -253 164 -227 213 32 60 179 92 422 94 98 0 178 2
178 4 0 12 -66 95 -103 129 -152 140 -361 148 -647 24 l-92 -40 -76 30 c-255
101 -431 235 -463 353 -29 108 76 221 244 262 66 16 220 17 289 3z m2833
-1397 c-55 -53 -133 -119 -174 -147 l-73 -50 -39 42 c-40 43 -50 67 -25 57 20
-8 79 25 166 92 89 68 162 104 210 104 l35 -1 -100 -97z m-2702 60 c21 -8 83
-48 139 -88 56 -41 111 -76 122 -79 12 -2 29 -6 39 -7 16 -3 16 -6 -7 -37 -41
-55 -60 -65 -94 -47 -48 25 -183 129 -260 201 -53 50 -70 70 -60 76 16 10 69
2 121 -19z m-113 -58 c272 -277 678 -465 1145 -530 142 -20 449 -22 575 -5
472 65 841 233 1145 522 49 47 80 69 97 69 54 0 123 -34 174 -85 66 -66 87
-126 83 -234 l-4 -78 -59 -54 c-169 -155 -343 -273 -561 -380 -325 -159 -659
-241 -1040 -255 -604 -23 -1216 163 -1669 506 -152 115 -202 167 -220 229 -20
69 -20 104 0 171 22 74 91 145 164 170 88 31 98 28 170 -46z"/>
<path d="M4550 6795 c0 -78 2 -85 20 -85 18 0 20 7 21 63 l1 62 21 -65 c17
-51 26 -65 42 -65 15 0 25 14 40 55 l20 55 3 -57 c2 -48 6 -58 21 -58 15 0 19
12 25 82 7 87 3 98 -40 98 -16 0 -25 -11 -39 -47 -26 -70 -31 -71 -49 -9 -16
54 -18 56 -51 56 l-35 0 0 -85z"/>
<path d="M4303 6862 c-11 -7 -73 -153 -73 -172 0 -19 30 -10 46 15 13 20 24
25 60 25 30 0 46 -5 50 -15 6 -15 55 -22 53 -7 0 4 -22 41 -48 82 -47 73 -64
88 -88 72z m47 -89 c0 -7 -11 -13 -25 -13 -29 0 -28 0 -15 36 10 26 11 26 25
8 8 -10 15 -25 15 -31z"/>
<path d="M4841 6783 c-27 -42 -47 -81 -45 -85 9 -14 33 -8 47 12 12 17 21 19
60 14 29 -4 47 -12 47 -20 0 -14 38 -39 47 -30 6 6 -12 64 -43 134 -33 75 -52
71 -113 -25z m84 -10 c5 -20 3 -23 -19 -23 -28 0 -32 10 -15 42 12 22 23 16
34 -19z"/>
<path d="M4150 6809 l-21 -40 -30 25 c-28 24 -79 36 -79 19 1 -5 21 -24 46
-43 24 -19 47 -46 50 -60 10 -46 14 -51 31 -48 14 3 17 12 15 45 -3 31 3 53
22 86 31 53 32 57 6 57 -13 0 -27 -14 -40 -41z"/>
<path d="M5048 6748 c-9 -46 -15 -84 -14 -85 0 0 10 -3 20 -5 15 -2 21 5 27
30 4 18 8 34 10 36 11 8 88 -17 84 -27 -17 -56 -15 -67 8 -67 20 0 25 7 36 63
7 34 15 72 18 85 4 18 1 22 -21 22 -21 0 -26 -5 -26 -24 0 -32 -12 -38 -55
-30 -35 6 -36 8 -33 43 2 30 0 36 -18 39 -18 3 -22 -6 -36 -80z"/>
<path d="M3877 6775 c-27 -7 -50 -15 -52 -17 -4 -4 34 -160 39 -166 2 -1 11 0
20 4 12 5 16 16 14 42 -4 47 17 52 71 17 28 -19 46 -25 62 -20 23 8 23 8 -6
31 -17 13 -36 24 -44 24 -10 0 -8 7 7 23 59 62 3 93 -111 62z m83 -34 c0 -26
-68 -51 -81 -30 -13 22 -11 29 14 39 39 16 67 12 67 -9z"/>
<path d="M5293 6681 c-58 -63 -61 -69 -41 -75 13 -3 29 1 38 9 24 21 94 -3 98
-33 3 -18 37 -41 47 -30 1 1 -4 44 -12 93 -22 131 -40 135 -130 36z m87 -17
c0 -25 -14 -30 -40 -14 -12 7 -12 12 4 29 22 25 36 19 36 -15z"/>
<path d="M5484 6699 c-7 -12 13 -29 33 -29 23 0 22 -18 -2 -81 -19 -48 -22
-65 -13 -71 22 -14 32 -3 56 61 19 49 28 61 41 56 38 -16 51 -17 51 -3 0 7
-12 19 -27 24 -16 6 -51 21 -80 32 -36 15 -54 18 -59 11z"/>
<path d="M3655 6690 c-8 -14 -26 -183 -19 -189 9 -10 39 16 42 37 5 29 78 58
101 39 16 -13 51 -12 51 2 0 4 -29 33 -64 64 -61 54 -97 69 -111 47z m59 -59
c17 -19 17 -20 -3 -30 -29 -16 -31 -14 -31 19 0 35 10 38 34 11z"/>
<path d="M3509 6630 c-9 -5 -27 -35 -39 -65 l-23 -56 -18 31 c-20 32 -29 36
-45 20 -8 -8 1 -34 28 -85 35 -67 41 -74 59 -65 15 9 17 15 9 30 -12 23 -13
41 -1 58 7 11 16 10 51 -8 37 -19 47 -20 69 -10 26 12 25 13 -37 41 -56 26
-62 31 -52 48 18 35 30 71 22 71 -4 0 -14 -5 -23 -10z"/>
<path d="M5670 6535 c0 -85 2 -95 20 -105 18 -10 30 -3 90 47 38 32 69 61 69
65 1 4 -9 10 -20 13 -17 6 -32 -4 -70 -41 l-49 -48 0 76 c0 72 -6 88 -36 88
-2 0 -4 -43 -4 -95z"/>
<path d="M5846 6447 c-41 -29 -76 -55 -76 -59 0 -13 41 -19 55 -8 21 18 95
-26 95 -56 0 -13 9 -28 20 -34 19 -10 20 -8 20 87 0 85 -2 100 -19 110 -16 10
-30 4 -95 -40z m74 -32 c0 -34 -1 -35 -22 -24 -13 6 -25 13 -27 15 -3 3 39 43
47 44 1 0 2 -16 2 -35z"/>
<path d="M3176 6428 c-16 -9 -17 -18 -11 -87 10 -113 13 -122 36 -108 12 8 17
18 13 33 -8 30 67 84 90 65 11 -10 20 -10 36 -1 27 14 24 17 -70 68 -60 33
-79 39 -94 30z m62 -61 c9 -7 9 -13 1 -23 -20 -24 -39 -16 -39 17 0 30 5 31
38 6z"/>
<path d="M6122 6308 c5 -53 2 -69 -13 -89 -23 -29 -24 -45 -4 -53 9 -3 23 6
36 23 16 22 35 32 80 41 56 12 59 14 44 31 -13 14 -23 15 -48 8 -53 -15 -57
-12 -57 34 0 32 -5 45 -21 56 -22 13 -22 12 -17 -51z"/>
<path d="M3073 6353 c-8 -3 -13 -23 -13 -54 0 -53 0 -53 -49 -39 -22 6 -40 6
-53 -1 -27 -15 -16 -24 47 -38 39 -9 60 -20 71 -37 9 -13 22 -24 30 -24 23 0
26 20 7 48 -10 16 -20 53 -23 88 -4 43 -9 60 -17 57z"/>
<path d="M2851 6162 c-45 -41 -61 -61 -52 -66 7 -5 21 0 35 13 l23 22 48 -56
c38 -45 50 -53 61 -44 20 16 19 19 -31 75 l-44 51 24 23 c22 21 25 40 7 40 -4
0 -36 -26 -71 -58z"/>
<path d="M6255 6165 c-47 -46 -24 -124 45 -160 66 -34 130 1 130 71 0 29 -8
44 -39 75 -48 48 -97 53 -136 14z m118 -33 c36 -32 9 -102 -40 -102 -30 0 -63
33 -63 64 0 30 44 67 68 59 9 -3 25 -13 35 -21z"/>
<path d="M2751 6056 c-11 -13 -5 -25 39 -76 29 -33 55 -60 60 -60 4 0 13 7 21
16 11 13 4 24 -47 75 -53 53 -62 58 -73 45z"/>
<path d="M6447 5990 c-31 -28 -57 -58 -57 -65 0 -7 22 -33 50 -59 59 -55 89
-59 131 -17 44 44 39 78 -19 142 l-48 52 -57 -53z m113 -67 c0 -27 -33 -63
-58 -63 -10 0 -29 11 -42 25 l-24 25 39 40 39 40 23 -22 c13 -12 23 -32 23
-45z"/>
<path d="M2680 5985 c-11 -13 -9 -20 11 -41 l23 -25 -32 -31 -31 -32 -24 22
c-22 20 -25 21 -37 7 -12 -14 -5 -24 45 -75 45 -46 62 -57 72 -48 19 15 16 31
-7 46 -27 17 -25 33 8 65 l28 27 24 -25 c22 -23 25 -24 41 -9 23 20 23 20 -50
83 -51 44 -60 49 -71 36z"/>
<path d="M6595 5805 c-56 -52 -59 -56 -43 -72 17 -16 19 -16 44 8 l26 24 29
-35 30 -35 -26 -20 c-28 -23 -31 -37 -12 -53 9 -7 29 5 74 47 54 49 60 58 49
74 -13 16 -15 16 -40 -4 l-27 -22 -29 34 -29 34 26 22 c23 18 25 24 14 37 -8
9 -16 16 -20 16 -3 -1 -33 -25 -66 -55z"/>
<path d="M2525 5779 c-20 -11 -100 -107 -94 -114 2 -2 33 -26 69 -53 l64 -50
24 31 c62 84 68 132 21 171 -32 28 -52 31 -84 15z m45 -44 c38 -20 46 -47 23
-85 -9 -16 -20 -30 -23 -30 -9 0 -90 61 -90 68 0 6 51 62 57 62 2 0 17 -7 33
-15z"/>
<path d="M6755 5605 c-44 -8 -81 -14 -83 -14 -1 -1 2 -10 8 -21 8 -14 17 -19
33 -15 30 7 71 -54 62 -94 -4 -18 -1 -32 8 -39 10 -9 21 6 55 74 36 72 40 87
30 104 -7 11 -17 19 -23 19 -5 -1 -46 -7 -90 -14z m75 -42 c0 -5 -8 -17 -16
-28 -15 -20 -15 -20 -30 -1 -21 29 -18 36 16 36 17 0 30 -3 30 -7z"/>
<path d="M2344 5543 c-10 -15 -4 -33 34 -105 42 -82 46 -86 59 -68 10 15 11
25 3 40 -15 29 25 90 60 90 14 0 31 9 37 19 13 22 4 25 -117 36 -56 6 -67 4
-76 -12z m94 -33 c9 0 8 -7 -5 -26 l-17 -26 -18 24 c-24 31 -23 42 5 34 12 -3
28 -6 35 -6z"/>
<path d="M3058 2142 c-75 -86 -76 -87 -57 -107 18 -19 19 -19 47 8 17 16 39
27 56 27 l28 0 -7 -73 c-6 -65 -5 -74 14 -91 12 -11 24 -16 27 -13 4 4 9 44
13 89 l6 83 70 -3 70 -4 -24 26 c-22 24 -32 26 -103 26 -43 0 -78 3 -78 6 0 4
14 22 31 41 29 33 29 36 13 54 -9 10 -20 19 -23 19 -3 -1 -41 -40 -83 -88z"/>
<path d="M5899 2141 c-26 -21 -27 -8 28 -188 l25 -82 23 15 c20 13 22 20 14
40 -13 37 -13 38 35 78 40 33 47 35 70 25 22 -10 29 -9 46 6 11 10 17 22 13
26 -7 6 -134 60 -210 90 -16 6 -28 3 -44 -10z m88 -66 l36 -15 -23 -25 c-29
-31 -36 -31 -44 -1 -3 13 -9 31 -12 40 -8 20 -3 20 43 1z"/>
<path d="M5775 2036 c-18 -13 -17 -17 18 -76 21 -34 36 -64 34 -67 -2 -2 -41
12 -87 32 -78 33 -84 35 -107 20 -14 -9 -21 -21 -17 -28 55 -93 117 -187 122
-187 4 0 15 6 24 13 15 12 13 19 -23 75 -22 34 -35 62 -31 62 5 0 42 -13 82
-30 83 -34 89 -35 115 -16 18 13 16 18 -40 110 -32 53 -61 99 -65 101 -4 2
-15 -2 -25 -9z"/>
<path d="M3283 1952 c-57 -37 -103 -70 -103 -75 0 -4 11 -13 25 -19 20 -9 28
-8 44 6 18 16 21 16 70 -15 47 -28 51 -34 46 -59 -5 -22 -1 -32 17 -44 12 -9
25 -12 29 -8 5 6 29 202 29 243 0 12 -37 39 -53 39 -1 0 -48 -30 -104 -68z
m99 -42 c-4 -44 -15 -49 -51 -21 l-23 18 33 21 c19 12 36 22 39 22 3 0 4 -18
2 -40z"/>
<path d="M3527 1913 c-10 -17 -87 -206 -85 -208 2 -1 13 -7 25 -14 20 -10 24
-8 42 34 11 25 24 45 30 45 20 0 41 -33 57 -86 12 -42 22 -57 41 -65 14 -5 28
-7 31 -4 3 2 -4 32 -15 65 l-20 60 32 0 c39 0 55 16 55 55 0 40 -18 56 -103
94 -73 33 -83 35 -90 24z m97 -70 c74 -35 48 -84 -30 -55 -44 16 -50 25 -38
56 8 20 25 20 68 -1z"/>
<path d="M5545 1896 c-18 -13 -18 -16 17 -92 40 -87 38 -109 -15 -128 -36 -13
-53 4 -93 92 -32 70 -34 73 -56 61 -13 -6 -24 -13 -26 -14 -2 -2 15 -39 37
-84 46 -90 74 -116 117 -105 78 19 128 64 121 109 -6 36 -67 175 -76 175 -4 0
-16 -6 -26 -14z"/>
<path d="M3783 1694 c-68 -75 -84 -97 -72 -105 24 -15 46 -10 61 13 l15 22 54
-20 c46 -16 54 -23 57 -47 3 -27 44 -58 58 -44 3 3 -1 58 -10 122 -9 64 -16
120 -16 125 0 4 -13 13 -30 18 -28 10 -32 8 -117 -84z m107 -31 c0 -18 -2 -33
-4 -33 -1 0 -17 5 -34 11 l-32 11 27 34 c29 39 43 32 43 -23z"/>
<path d="M5210 1766 c-63 -19 -74 -25 -72 -42 6 -36 54 -199 61 -205 3 -4 17
-3 30 2 17 7 21 14 16 27 -4 9 -9 32 -12 50 -5 29 -4 32 21 32 15 0 48 -14 72
-31 38 -26 51 -30 81 -24 l36 7 -29 23 c-16 13 -40 30 -54 37 -14 7 -27 14
-29 15 -3 2 5 10 17 19 30 21 30 77 0 98 -29 20 -47 19 -138 -8z m105 -51 c0
-14 -13 -24 -49 -38 -27 -9 -51 -16 -53 -14 -2 3 -5 17 -6 33 -2 31 23 44 78
41 23 -2 30 -7 30 -22z"/>
<path d="M4036 1713 c-3 -10 -12 -60 -21 -112 -13 -77 -14 -96 -3 -102 25 -16
37 -9 43 24 3 17 9 52 14 77 l8 45 44 -88 c32 -64 50 -89 67 -94 13 -3 25 -3
27 -1 5 4 44 212 45 231 0 4 -11 7 -24 7 -27 0 -31 -9 -42 -83 -3 -26 -9 -49
-13 -52 -4 -2 -26 34 -49 81 -35 71 -46 84 -66 84 -15 0 -27 -7 -30 -17z"/>
<path d="M4979 1713 c-25 -4 -29 -12 -59 -129 -18 -68 -31 -127 -28 -129 12
-13 58 16 58 35 0 22 22 33 83 43 32 5 40 2 53 -19 17 -24 39 -30 62 -16 9 6
-9 38 -63 115 -42 59 -77 106 -78 106 -1 -1 -14 -4 -28 -6z m41 -99 c12 -19
21 -36 19 -38 -2 -2 -19 -6 -37 -9 l-33 -7 7 38 c11 63 15 65 44 16z"/>
<path d="M4755 1683 c-77 -5 -97 -12 -93 -31 2 -13 12 -16 44 -14 l41 3 7 -47
c3 -26 6 -65 6 -88 0 -50 11 -69 36 -64 17 3 19 12 16 106 l-4 102 41 0 c34 0
41 3 41 20 0 21 -4 22 -135 13z"/>
<path d="M4334 1661 c-74 -46 -69 -167 9 -207 37 -20 129 -23 170 -6 24 10 27
16 27 62 l0 50 -50 0 c-27 0 -53 0 -57 1 -5 0 -9 -7 -11 -15 -2 -10 8 -17 32
-22 30 -5 34 -9 26 -24 -19 -36 -109 -29 -130 10 -6 10 -10 35 -10 54 0 46 29
76 74 76 18 0 45 -9 59 -20 29 -23 67 -27 67 -7 0 8 -11 24 -25 37 -36 34
-136 40 -181 11z"/>
</g>
</svg>
